<svg width="2646" height="529" viewBox="0 0 2646 529" fill="none" xmlns="http://www.w3.org/2000/svg">
    <g clip-path="url(#clip0_1872_6852)">
        <path d="M183.598 27.8125C97.2752 27.8125 27.2969 97.791 27.2969 184.114" stroke="white" stroke-width="53.9327"
            stroke-linecap="round" />
        <path d="M183.598 481.427C97.2752 481.427 27.2969 411.448 27.2969 325.125" stroke="white" stroke-width="53.9327"
            stroke-linecap="round" />
        <path d="M340.694 27.8125C427.017 27.8125 496.996 97.791 496.996 184.114" stroke="white" stroke-width="53.9327"
            stroke-linecap="round" />
        <path
            d="M362.766 254.629C362.766 199.057 317.716 154.008 262.145 154.008C206.573 154.008 161.523 199.057 161.523 254.629C161.523 310.201 206.573 355.25 262.145 355.25C317.716 355.25 362.766 310.201 362.766 254.629Z"
            fill="#FA7319" />
        <path d="M357.136 420.016H435.286V501.053" stroke="white" stroke-width="53.9327" stroke-linecap="round" />
        <path d="M513.435 420.014H435.285V338.977" stroke="white" stroke-width="53.9327" stroke-linecap="round" />
    </g>
    <path
        d="M749.095 399.522C733.909 399.522 719.792 396.741 706.744 391.18C693.911 385.619 682.788 377.919 673.377 368.08C664.18 358.027 657.442 346.37 653.164 333.108L689.419 317.387C695.194 331.076 703.536 341.878 714.444 349.792C725.353 357.492 737.652 361.342 751.341 361.342C759.041 361.342 765.672 360.166 771.233 357.813C777.008 355.246 781.393 351.824 784.387 347.546C787.596 343.268 789.2 338.135 789.2 332.146C789.2 325.087 787.061 319.312 782.783 314.82C778.719 310.115 772.516 306.479 764.174 303.912L718.294 289.153C699.686 283.378 685.676 274.716 676.264 263.165C666.853 251.615 662.148 238.033 662.148 222.419C662.148 208.73 665.463 196.645 672.094 186.164C678.938 175.683 688.349 167.555 700.327 161.78C712.519 155.791 726.422 152.797 742.036 152.797C756.367 152.797 769.522 155.364 781.5 160.497C793.478 165.417 803.744 172.368 812.3 181.351C821.07 190.121 827.593 200.495 831.871 212.473L795.937 228.515C791.232 216.537 784.173 207.339 774.762 200.923C765.351 194.292 754.442 190.977 742.036 190.977C734.764 190.977 728.347 192.26 722.786 194.827C717.225 197.18 712.84 200.602 709.632 205.094C706.637 209.371 705.14 214.505 705.14 220.494C705.14 227.125 707.279 233.007 711.557 238.14C715.835 243.06 722.358 246.91 731.128 249.69L775.083 263.486C794.119 269.689 808.343 278.245 817.754 289.153C827.38 300.062 832.192 313.537 832.192 329.579C832.192 343.268 828.663 355.353 821.604 365.834C814.546 376.315 804.814 384.549 792.408 390.538C780.002 396.527 765.565 399.522 749.095 399.522ZM932.763 399.522C915.437 399.522 899.823 395.565 885.92 387.651C872.231 379.523 861.429 368.614 853.515 354.925C845.601 341.022 841.644 325.408 841.644 308.083C841.644 290.758 845.601 275.25 853.515 261.561C861.429 247.872 872.231 237.071 885.92 229.156C899.823 221.242 915.437 217.285 932.763 217.285C945.168 217.285 956.719 219.531 967.413 224.023C978.108 228.301 987.305 234.29 995.005 241.99C1002.92 249.476 1008.59 258.46 1012.01 268.941L975.113 284.982C971.905 276.213 966.451 269.154 958.751 263.807C951.264 258.46 942.602 255.786 932.763 255.786C923.565 255.786 915.33 258.032 908.058 262.524C901 267.015 895.438 273.218 891.374 281.132C887.31 289.046 885.278 298.137 885.278 308.404C885.278 318.671 887.31 327.761 891.374 335.675C895.438 343.589 901 349.792 908.058 354.284C915.33 358.775 923.565 361.021 932.763 361.021C942.816 361.021 951.585 358.348 959.071 353C966.558 347.653 971.905 340.488 975.113 331.504L1012.01 348.188C1008.59 358.027 1003.03 366.903 995.326 374.817C987.626 382.517 978.429 388.613 967.734 393.105C957.039 397.383 945.382 399.522 932.763 399.522ZM1024.65 395.672V221.136H1064.11V259.957L1060.91 254.182C1064.97 241.134 1071.28 232.044 1079.83 226.911C1088.6 221.777 1099.08 219.21 1111.28 219.21H1121.54V256.428H1106.46C1094.49 256.428 1084.86 260.171 1077.59 267.657C1070.32 274.93 1066.68 285.196 1066.68 298.458V395.672H1024.65ZM1208.18 399.522C1190.21 399.522 1174.49 395.458 1161.01 387.33C1147.54 379.202 1137.06 368.187 1129.57 354.284C1122.09 340.381 1118.34 324.98 1118.34 308.083C1118.34 290.544 1122.09 275.036 1129.57 261.561C1137.27 247.872 1147.65 237.071 1160.69 229.156C1173.95 221.242 1188.71 217.285 1204.97 217.285C1218.66 217.285 1230.64 219.531 1240.9 224.023C1251.38 228.515 1260.26 234.718 1267.53 242.632C1274.81 250.546 1280.37 259.636 1284.22 269.903C1288.07 279.956 1289.99 290.865 1289.99 302.629C1289.99 305.623 1289.78 308.725 1289.35 311.933C1289.14 315.141 1288.6 317.922 1287.75 320.275H1152.99V288.191H1264L1244.11 303.27C1246.04 293.431 1245.5 284.662 1242.51 276.961C1239.73 269.261 1235.02 263.165 1228.39 258.674C1221.97 254.182 1214.17 251.936 1204.97 251.936C1196.2 251.936 1188.39 254.182 1181.55 258.674C1174.7 262.952 1169.46 269.368 1165.83 277.924C1162.4 286.266 1161.12 296.426 1161.98 308.404C1161.12 319.098 1162.51 328.617 1166.15 336.958C1170 345.086 1175.56 351.396 1182.83 355.888C1190.32 360.38 1198.87 362.625 1208.5 362.625C1218.12 362.625 1226.25 360.593 1232.88 356.53C1239.73 352.466 1245.07 347.011 1248.92 340.167L1282.93 356.85C1279.51 365.192 1274.16 372.571 1266.89 378.988C1259.62 385.405 1250.96 390.432 1240.9 394.068C1231.06 397.704 1220.16 399.522 1208.18 399.522ZM1385.38 399.522C1367.41 399.522 1351.69 395.458 1338.22 387.33C1324.74 379.202 1314.26 368.187 1306.77 354.284C1299.29 340.381 1295.54 324.98 1295.54 308.083C1295.54 290.544 1299.29 275.036 1306.77 261.561C1314.47 247.872 1324.85 237.071 1337.89 229.156C1351.16 221.242 1365.91 217.285 1382.17 217.285C1395.86 217.285 1407.84 219.531 1418.1 224.023C1428.58 228.515 1437.46 234.718 1444.73 242.632C1452.01 250.546 1457.57 259.636 1461.42 269.903C1465.27 279.956 1467.19 290.865 1467.19 302.629C1467.19 305.623 1466.98 308.725 1466.55 311.933C1466.34 315.141 1465.8 317.922 1464.95 320.275H1330.19V288.191H1441.2L1421.31 303.27C1423.24 293.431 1422.7 284.662 1419.71 276.961C1416.93 269.261 1412.22 263.165 1405.59 258.674C1399.17 254.182 1391.37 251.936 1382.17 251.936C1373.4 251.936 1365.59 254.182 1358.75 258.674C1351.9 262.952 1346.66 269.368 1343.03 277.924C1339.61 286.266 1338.32 296.426 1339.18 308.404C1338.32 319.098 1339.71 328.617 1343.35 336.958C1347.2 345.086 1352.76 351.396 1360.03 355.888C1367.52 360.38 1376.07 362.625 1385.7 362.625C1395.32 362.625 1403.45 360.593 1410.08 356.53C1416.93 352.466 1422.28 347.011 1426.13 340.167L1460.13 356.85C1456.71 365.192 1451.36 372.571 1444.09 378.988C1436.82 385.405 1428.16 390.432 1418.1 394.068C1408.27 397.704 1397.36 399.522 1385.38 399.522ZM1479.8 395.672V221.136H1519.27V255.465L1516.06 249.369C1520.12 238.889 1526.75 230.975 1535.95 225.627C1545.36 220.066 1556.27 217.285 1568.68 217.285C1581.51 217.285 1592.85 220.066 1602.68 225.627C1612.74 231.188 1620.54 238.996 1626.11 249.049C1631.67 258.888 1634.45 270.331 1634.45 283.378V395.672H1592.42V293.324C1592.42 285.624 1590.92 278.993 1587.93 273.432C1584.93 267.871 1580.76 263.593 1575.41 260.599C1570.28 257.39 1564.18 255.786 1557.13 255.786C1550.28 255.786 1544.18 257.39 1538.84 260.599C1533.49 263.593 1529.32 267.871 1526.32 273.432C1523.33 278.993 1521.83 285.624 1521.83 293.324V395.672H1479.8ZM1717.15 399.522C1698.54 399.522 1682.29 395.137 1668.38 386.368C1654.69 377.384 1645.28 365.299 1640.15 350.113L1671.59 335.033C1676.08 344.872 1682.29 352.573 1690.2 358.134C1698.33 363.695 1707.31 366.476 1717.15 366.476C1724.85 366.476 1730.95 364.764 1735.44 361.342C1739.93 357.92 1742.18 353.428 1742.18 347.867C1742.18 344.445 1741.21 341.664 1739.29 339.525C1737.58 337.172 1735.12 335.247 1731.91 333.75C1728.92 332.039 1725.6 330.649 1721.96 329.579L1693.41 321.558C1678.65 317.28 1667.42 310.757 1659.72 301.987C1652.23 293.217 1648.49 282.844 1648.49 270.866C1648.49 260.171 1651.17 250.867 1656.51 242.953C1662.07 234.825 1669.67 228.515 1679.29 224.023C1689.13 219.531 1700.36 217.285 1712.98 217.285C1729.45 217.285 1743.99 221.242 1756.61 229.156C1769.23 237.071 1778.22 248.193 1783.56 262.524L1751.48 277.603C1748.49 269.689 1743.46 263.379 1736.4 258.674C1729.34 253.968 1721.43 251.615 1712.66 251.615C1705.6 251.615 1700.04 253.219 1695.98 256.428C1691.91 259.636 1689.88 263.807 1689.88 268.941C1689.88 272.149 1690.74 274.93 1692.45 277.282C1694.16 279.635 1696.51 281.56 1699.5 283.057C1702.71 284.555 1706.35 285.945 1710.41 287.228L1738.33 295.57C1752.66 299.848 1763.67 306.265 1771.37 314.82C1779.29 323.376 1783.24 333.857 1783.24 346.263C1783.24 356.743 1780.46 366.048 1774.9 374.176C1769.34 382.09 1761.64 388.293 1751.8 392.784C1741.96 397.276 1730.41 399.522 1717.15 399.522ZM1796.29 395.672V152.797H1838.32V255.465L1832.55 249.369C1836.61 238.889 1843.24 230.975 1852.44 225.627C1861.85 220.066 1872.76 217.285 1885.17 217.285C1898 217.285 1909.34 220.066 1919.17 225.627C1929.23 231.188 1937.03 238.996 1942.6 249.049C1948.16 258.888 1950.94 270.331 1950.94 283.378V395.672H1908.91V293.324C1908.91 285.624 1907.41 278.993 1904.42 273.432C1901.42 267.871 1897.25 263.593 1891.9 260.599C1886.77 257.39 1880.67 255.786 1873.62 255.786C1866.77 255.786 1860.67 257.39 1855.33 260.599C1849.98 263.593 1845.81 267.871 1842.81 273.432C1839.82 278.993 1838.32 285.624 1838.32 293.324V395.672H1796.29ZM2052.57 399.522C2035.46 399.522 2019.84 395.565 2005.73 387.651C1991.82 379.737 1980.7 368.935 1972.36 355.246C1964.23 341.557 1960.17 325.943 1960.17 308.404C1960.17 290.865 1964.23 275.25 1972.36 261.561C1980.7 247.872 1991.82 237.071 2005.73 229.156C2019.63 221.242 2035.25 217.285 2052.57 217.285C2069.68 217.285 2085.19 221.242 2099.09 229.156C2113 237.071 2124.01 247.872 2132.14 261.561C2140.48 275.036 2144.65 290.651 2144.65 308.404C2144.65 325.943 2140.48 341.557 2132.14 355.246C2123.8 368.935 2112.67 379.737 2098.77 387.651C2084.87 395.565 2069.47 399.522 2052.57 399.522ZM2052.57 361.021C2061.98 361.021 2070.22 358.775 2077.28 354.284C2084.55 349.792 2090.22 343.589 2094.28 335.675C2098.56 327.547 2100.7 318.457 2100.7 308.404C2100.7 298.137 2098.56 289.153 2094.28 281.453C2090.22 273.539 2084.55 267.336 2077.28 262.845C2070.22 258.139 2061.98 255.786 2052.57 255.786C2042.95 255.786 2034.5 258.139 2027.22 262.845C2019.95 267.336 2014.18 273.539 2009.9 281.453C2005.83 289.153 2003.8 298.137 2003.8 308.404C2003.8 318.457 2005.83 327.547 2009.9 335.675C2014.18 343.589 2019.95 349.792 2027.22 354.284C2034.5 358.775 2042.95 361.021 2052.57 361.021ZM2233.71 397.597C2214.03 397.597 2198.74 392.25 2187.83 381.555C2177.13 370.646 2171.79 355.353 2171.79 335.675V258.674H2141.63V221.136H2144.84C2153.39 221.136 2160.02 218.89 2164.73 214.398C2169.43 209.906 2171.79 203.382 2171.79 194.827V181.351H2213.82V221.136H2253.92V258.674H2213.82V333.429C2213.82 339.204 2214.78 344.124 2216.7 348.188C2218.84 352.252 2222.05 355.353 2226.33 357.492C2230.82 359.631 2236.49 360.7 2243.33 360.7C2244.83 360.7 2246.54 360.593 2248.47 360.38C2250.61 360.166 2252.64 359.952 2254.56 359.738V395.672C2251.57 396.1 2248.15 396.527 2244.3 396.955C2240.45 397.383 2236.92 397.597 2233.71 397.597ZM2267.42 395.672V152.797H2309.45V255.465L2303.68 249.369C2307.74 238.889 2314.37 230.975 2323.57 225.627C2332.98 220.066 2343.89 217.285 2356.3 217.285C2369.13 217.285 2380.47 220.066 2390.31 225.627C2400.36 231.188 2408.17 238.996 2413.73 249.049C2419.29 258.888 2422.07 270.331 2422.07 283.378V395.672H2380.04V293.324C2380.04 285.624 2378.54 278.993 2375.55 273.432C2372.55 267.871 2368.38 263.593 2363.03 260.599C2357.9 257.39 2351.81 255.786 2344.75 255.786C2337.9 255.786 2331.81 257.39 2326.46 260.599C2321.11 263.593 2316.94 267.871 2313.95 273.432C2310.95 278.993 2309.45 285.624 2309.45 293.324V395.672H2267.42ZM2438.36 395.672V221.136H2480.39V395.672H2438.36ZM2438.36 201.564V156.647H2480.39V201.564H2438.36ZM2566.36 399.522C2547.75 399.522 2531.49 395.137 2517.59 386.368C2503.9 377.384 2494.49 365.299 2489.36 350.113L2520.8 335.033C2525.29 344.872 2531.49 352.573 2539.41 358.134C2547.54 363.695 2556.52 366.476 2566.36 366.476C2574.06 366.476 2580.15 364.764 2584.65 361.342C2589.14 357.92 2591.38 353.428 2591.38 347.867C2591.38 344.445 2590.42 341.664 2588.5 339.525C2586.79 337.172 2584.33 335.247 2581.12 333.75C2578.12 332.039 2574.81 330.649 2571.17 329.579L2542.62 321.558C2527.86 317.28 2516.63 310.757 2508.93 301.987C2501.44 293.217 2497.7 282.844 2497.7 270.866C2497.7 260.171 2500.37 250.867 2505.72 242.953C2511.28 234.825 2518.87 228.515 2528.5 224.023C2538.34 219.531 2549.57 217.285 2562.19 217.285C2578.66 217.285 2593.2 221.242 2605.82 229.156C2618.44 237.071 2627.43 248.193 2632.77 262.524L2600.69 277.603C2597.69 269.689 2592.67 263.379 2585.61 258.674C2578.55 253.968 2570.64 251.615 2561.87 251.615C2554.81 251.615 2549.25 253.219 2545.18 256.428C2541.12 259.636 2539.09 263.807 2539.09 268.941C2539.09 272.149 2539.94 274.93 2541.65 277.282C2543.37 279.635 2545.72 281.56 2548.71 283.057C2551.92 284.555 2555.56 285.945 2559.62 287.228L2587.53 295.57C2601.87 299.848 2612.88 306.265 2620.58 314.82C2628.49 323.376 2632.45 333.857 2632.45 346.263C2632.45 356.743 2629.67 366.048 2624.11 374.176C2618.55 382.09 2610.85 388.293 2601.01 392.784C2591.17 397.276 2579.62 399.522 2566.36 399.522Z"
        fill="#F0F0F0" />
    <defs>
        <clipPath id="clip0_1872_6852">
            <rect width="540.572" height="528.052" fill="white" transform="translate(0.0791016 0.648438)" />
        </clipPath>
    </defs>
</svg>
